<svg xmlns="http://www.w3.org/2000/svg" viewBox="0 0 1932.473 2160">
  <defs>
    <style>
      .cls-1 {
        fill: #fff;
      }

      .cls-2 {
        fill: rgba(245,210,191,0.22);
      }
    </style>
  </defs>
  <g id="imagebg-1" transform="translate(1533.473 -3130)">
    <path id="Path_54" data-name="Path 54" class="cls-1" d="M0,0H1920V1080H0Z" transform="translate(-1521 3130)"/>
    <path id="Path_55" data-name="Path 55" class="cls-2" d="M6941.527,1087.5,7231.192,981.59l33.1,134.155Z" transform="translate(-7300 2837)"/>
    <path id="Path_56" data-name="Path 56" class="cls-2" d="M6941.527,1087.5,7231.192,981.59l33.1,134.155Z" transform="translate(-8203 2703)"/>
    <path id="Path_57" data-name="Path 57" class="cls-2" d="M6941.527,1087.5,7231.192,981.59l33.1,134.155Z" transform="translate(-7275 2500)"/>
    <path id="Path_58" data-name="Path 58" class="cls-2" d="M6941.527,1087.5,7231.192,981.59l33.1,134.155Z" transform="translate(-7969 2871)"/>
    <path id="Path_59" data-name="Path 59" class="cls-1" d="M0,0H1920V1080H0Z" transform="translate(-1521 4210)"/>
    <path id="Path_60" data-name="Path 60" class="cls-2" d="M6941.527,1087.5,7231.192,981.59l33.1,134.155Z" transform="translate(-7503 3515)"/>
    <path id="Path_61" data-name="Path 61" class="cls-2" d="M6941.527,1087.5,7231.192,981.59l33.1,134.155Z" transform="translate(-8406 3381)"/>
    <path id="Path_62" data-name="Path 62" class="cls-2" d="M6941.527,1087.5,7231.192,981.59l33.1,134.155Z" transform="translate(-7478 3178)"/>
    <path id="Path_63" data-name="Path 63" class="cls-2" d="M6941.527,1087.5,7231.192,981.59l33.1,134.155Z" transform="translate(-8172 3549)"/>
    <path id="Path_64" data-name="Path 64" class="cls-2" d="M6941.527,1087.5,7231.192,981.59l33.1,134.155Z" transform="translate(-6997 3919)"/>
    <path id="Path_65" data-name="Path 65" class="cls-2" d="M6941.527,1087.5,7231.192,981.59l33.1,134.155Z" transform="translate(-7900 3785)"/>
    <path id="Path_66" data-name="Path 66" class="cls-2" d="M6941.527,1087.5,7231.192,981.59l33.1,134.155Z" transform="translate(-6972 3582)"/>
    <path id="Path_67" data-name="Path 67" class="cls-2" d="M6941.527,1087.5,7231.192,981.59l33.1,134.155Z" transform="translate(-7666 3953)"/>
    <path id="Path_68" data-name="Path 68" class="cls-2" d="M6941.527,1087.5,7231.192,981.59l33.1,134.155Z" transform="translate(-6905 2614)"/>
    <path id="Path_69" data-name="Path 69" class="cls-2" d="M6941.527,1087.5,7231.192,981.59l33.1,134.155Z" transform="translate(-7969 2467)"/>
    <path id="Path_70" data-name="Path 70" class="cls-2" d="M6941.527,1087.5,7231.192,981.59l33.1,134.155Z" transform="translate(-6880 2277)"/>
    <path id="Path_71" data-name="Path 71" class="cls-2" d="M6941.527,1087.5,7231.192,981.59l33.1,134.155Z" transform="translate(-7574 2648)"/>
    <path id="Path_72" data-name="Path 72" class="cls-2" d="M6941.527,1087.5,7231.192,981.59l33.1,134.155Z" transform="translate(-7039 3308)"/>
    <path id="Path_73" data-name="Path 73" class="cls-2" d="M6941.527,1087.5,7231.192,981.59l33.1,134.155Z" transform="translate(-7942 3174)"/>
    <path id="Path_74" data-name="Path 74" class="cls-2" d="M6941.527,1087.5,7231.192,981.59l33.1,134.155Z" transform="translate(-7014 2971)"/>
    <path id="Path_75" data-name="Path 75" class="cls-2" d="M6941.527,1087.5,7231.192,981.59l33.1,134.155Z" transform="translate(-7708 3342)"/>
    <path id="Path_76" data-name="Path 76" class="cls-2" d="M6941.527,1087.5,7231.192,981.59l33.1,134.155Z" transform="translate(-7547 2257)"/>
    <path id="Path_77" data-name="Path 77" class="cls-2" d="M6941.527,1087.5,7231.192,981.59l33.1,134.155Z" transform="translate(-8463 2367)"/>
    <path id="Path_78" data-name="Path 78" class="cls-2" d="M6941.527,1087.5,7231.192,981.59l33.1,134.155Z" transform="translate(-8475 2972)"/>
    <path id="Path_79" data-name="Path 79" class="cls-2" d="M6941.527,1087.5,7231.192,981.59l33.1,134.155Z" transform="translate(-8061 2231)"/>
  </g>
</svg>
